# xmcd
# 
# Track frame offsets:
#     182
#     13930
#     29507
#     41367
#     51432
#     65252
#     77762
#     91447
#     104932
#     114727
#     128235
#     139725
#     153277
#     165495
#     175462
#     189627
#     200457
#     216320
#     226732
#     238802
#     251347
# 
# Disc length: 3523
# 
# Revision: 5
# Processed by: cddbd v1.5.2PL0 Copyright (c) Steve Scherf et al.
# Submitted via: BonkEnc v1.0
# 
DISCID=2e0dc115
DTITLE=Various Artist - Country Stars on CD #1
DYEAR=0
DGENRE=
TTITLE0=George Jones - A Good Year For The Roses
TTITLE1=Tex Ritter - I Dreamed Of A Hillbilly Heaven
TTITLE2=Hawkshaw Hawkins - Lonesome 7-7203
TTITLE3=Leroy Van Dyke - Walk On By
TTITLE4=Jerry Lee Lewis - I'll Make It All Up To You
TTITLE5=Cowboy Copas - Filipino Baby
TTITLE6=Mac Wiseman - Rocky Top
TTITLE7=Moon Mullican - I'll Sail My Ship Alone
TTITLE8=Hank Locklin - Send Me The Pillow You Dream On
TTITLE9=Alabama - Patches
TTITLE10=Red Sovine - The Days Of Me And You
TTITLE11=David Houston - Love Is A Miracle
TTITLE12=Johnny Paycheck - Don't Take Her She's All I Got
TTITLE13=Johnny Cash - Ballad Of a Teenage Queen
TTITLE14=Mike Lunsford - Stealin' Feelin'
TTITLE15=Jack Greene - There Goes My Everything
TTITLE16=Wanda Jackson - One Day At A Time
TTITLE17=Mel Tillis - Wine
TTITLE18=Skeeter Davis - The End Of The World
TTITLE19=Hank Thompson - Wild Side Of Life
TTITLE20=Stonewall Jackson - Don't Be Angry
EXTD=
EXTT0=
EXTT1=
EXTT2=
EXTT3=
EXTT4=
EXTT5=
EXTT6=
EXTT7=
EXTT8=
EXTT9=
EXTT10=
EXTT11=
EXTT12=
EXTT13=
EXTT14=
EXTT15=
EXTT16=
EXTT17=
EXTT18=
EXTT19=
EXTT20=
PLAYORDER=
